<?xml version="1.0" encoding="utf-8"?>
<svg id="master-artboard" viewBox="0 0 1064.2354736328125 874.614013671875" version="1.1" xmlns="http://www.w3.org/2000/svg" x="0px" y="0px" style="enable-background:new 0 0 1400 980;" width="1064.2354736328125px" height="874.614013671875px"><defs><style id="ee-google-fonts">@import url(https://fonts.googleapis.com/css?family=Rubik:300,300italic,400,400italic,500,500italic,700,700italic,900,900italic);</style></defs><rect id="ee-background" x="0" y="0" width="1064.2354736328125" height="874.614013671875" style="fill: #1192e5; fill-opacity: 1; pointer-events: none;"/>








































<g transform="matrix(2.119921922683716, 0, 0, 2.119921922683716, 3.746002197265625, -159.335205078125)"><g id="freepik--Birds--inject-12"><path d="M355,163.89a16.6,16.6,0,0,1,8.48,9.13s-.68-10.28,4.08-14.37c0,0-4.31,3.41-5.22,8.41A13.28,13.28,0,0,0,355,163.89Z" style="fill:#263238"/><path d="M333.83,138.12s7.9,6.14,10.06,11.8c0,0,1.21-6.07,6.93-7.89a8.34,8.34,0,0,0-6.93,3.52A19.94,19.94,0,0,0,333.83,138.12Z" style="fill:#263238"/><path d="M325.39,164.83s6.47-1,9.57,2.94c0,0-1.92-5.88,0-9.86,0,0-2.56,1.64-1.67,7.55C333.29,165.46,330.83,162.92,325.39,164.83Z" style="fill:#263238"/></g><g id="freepik--buildings-2--inject-12"><path d="M 119.400002 190.070007 H 204.279999 V 355.720001 H 119.400002 V 190.070007 Z" style="fill:#e6e6e6"/><path d="M 119.400002 190.070007 H 188.849998 V 355.720001 H 119.400002 V 190.070007 Z" style="fill:#f0f0f0"/><path d="M 117.57 190.070007 H 205.279999 V 192.770007 H 117.57 V 190.070007 Z" style="fill:#e0e0e0"/><path d="M 117.57 184.660004 H 205.279999 V 187.360004 H 117.57 V 184.660004 Z" style="fill:#e0e0e0"/><path d="M 119.400002 187.360001 H 203.440002 V 190.060001 H 119.400002 V 187.360001 Z" style="fill:#f0f0f0"/><path d="M 125.989998 199.820007 H 139.029998 V 212.860007 H 125.989998 V 199.820007 Z" style="fill:#e6e6e6"/><path d="M 127.139999 199.820007 H 139.03 V 212.860007 H 127.139999 V 199.820007 Z" style="fill:#f5f5f5"/><path d="M 145.75 199.820007 H 158.79 V 212.860007 H 145.75 V 199.820007 Z" style="fill:#e6e6e6"/><path d="M 146.899994 199.820007 H 158.789994 V 212.860007 H 146.899994 V 199.820007 Z" style="fill:#f5f5f5"/><path d="M 165.5 199.820007 H 178.54 V 212.860007 H 165.5 V 199.820007 Z" style="fill:#e6e6e6"/><path d="M 166.649994 199.820007 H 178.539994 V 212.860007 H 166.649994 V 199.820007 Z" style="fill:#f5f5f5"/><path d="M 125.989998 219.029999 H 139.029998 V 232.069999 H 125.989998 V 219.029999 Z" style="fill:#e6e6e6"/><path d="M 127.139999 219.029999 H 139.03 V 232.069999 H 127.139999 V 219.029999 Z" style="fill:#f5f5f5"/><path d="M 145.75 219.029999 H 158.79 V 232.069999 H 145.75 V 219.029999 Z" style="fill:#e6e6e6"/><path d="M 146.899994 219.029999 H 158.789994 V 232.069999 H 146.899994 V 219.029999 Z" style="fill:#f5f5f5"/><path d="M 165.5 219.029999 H 178.54 V 232.069999 H 165.5 V 219.029999 Z" style="fill:#e6e6e6"/><path d="M 166.649994 219.029999 H 178.539994 V 232.069999 H 166.649994 V 219.029999 Z" style="fill:#f5f5f5"/><path d="M 125.989998 254.199997 H 139.029998 V 267.239997 H 125.989998 V 254.199997 Z" style="fill:#e6e6e6"/><path d="M 127.139999 254.199997 H 139.03 V 267.239997 H 127.139999 V 254.199997 Z" style="fill:#f5f5f5"/><path d="M 145.75 254.199997 H 158.79 V 267.239997 H 145.75 V 254.199997 Z" style="fill:#e6e6e6"/><path d="M 146.899994 254.199997 H 158.789994 V 267.239997 H 146.899994 V 254.199997 Z" style="fill:#f5f5f5"/><path d="M 165.5 254.199997 H 178.54 V 267.239997 H 165.5 V 254.199997 Z" style="fill:#e6e6e6"/><path d="M 166.649994 254.199997 H 178.539994 V 267.239997 H 166.649994 V 254.199997 Z" style="fill:#f5f5f5"/><path d="M 125.989998 273.410004 H 139.029998 V 286.450004 H 125.989998 V 273.410004 Z" style="fill:#e6e6e6"/><path d="M 127.139999 273.410004 H 139.03 V 286.450004 H 127.139999 V 273.410004 Z" style="fill:#f5f5f5"/><path d="M 145.75 273.410004 H 158.79 V 286.450004 H 145.75 V 273.410004 Z" style="fill:#e6e6e6"/><path d="M 146.899994 273.410004 H 158.789994 V 286.450004 H 146.899994 V 273.410004 Z" style="fill:#f5f5f5"/><path d="M 165.5 273.410004 H 178.54 V 286.450004 H 165.5 V 273.410004 Z" style="fill:#e6e6e6"/><path d="M 166.649994 273.410004 H 178.539994 V 286.450004 H 166.649994 V 273.410004 Z" style="fill:#f5f5f5"/><path d="M 125.989998 312.5 H 139.029998 V 325.54 H 125.989998 V 312.5 Z" style="fill:#e6e6e6"/><path d="M 127.139999 312.5 H 139.03 V 325.54 H 127.139999 V 312.5 Z" style="fill:#f5f5f5"/><path d="M 145.75 312.5 H 158.79 V 325.54 H 145.75 V 312.5 Z" style="fill:#e6e6e6"/><path d="M 146.899994 312.5 H 158.789994 V 325.54 H 146.899994 V 312.5 Z" style="fill:#f5f5f5"/><path d="M 165.5 312.5 H 178.54 V 325.54 H 165.5 V 312.5 Z" style="fill:#e6e6e6"/><path d="M 166.649994 312.5 H 178.539994 V 325.54 H 166.649994 V 312.5 Z" style="fill:#f5f5f5"/><path d="M 125.989998 331.709991 H 139.029998 V 344.749991 H 125.989998 V 331.709991 Z" style="fill:#e6e6e6"/><path d="M 127.139999 331.709991 H 139.03 V 344.749991 H 127.139999 V 331.709991 Z" style="fill:#f5f5f5"/><path d="M 145.75 331.709991 H 158.79 V 344.749991 H 145.75 V 331.709991 Z" style="fill:#e6e6e6"/><path d="M 146.899994 331.709991 H 158.789994 V 344.749991 H 146.899994 V 331.709991 Z" style="fill:#f5f5f5"/><path d="M 165.5 331.709991 H 178.54 V 344.749991 H 165.5 V 331.709991 Z" style="fill:#e6e6e6"/><path d="M 166.649994 331.709991 H 178.539994 V 344.749991 H 166.649994 V 331.709991 Z" style="fill:#f5f5f5"/><path d="M 119.400002 241.240005 H 204.279999 V 242.450006 H 119.400002 V 241.240005 Z" style="fill:#e0e0e0"/><path d="M 119.400002 301.369995 H 204.279999 V 302.579995 H 119.400002 V 301.369995 Z" style="fill:#e0e0e0"/><path d="M 46.360001 239.669998 H 105.07 V 382.529999 H 46.360001 V 239.669998 Z" style="fill:#e0e0e0"/><path d="M 46.360001 239.669998 H 88.350002 V 382.529999 H 46.360001 V 239.669998 Z" style="fill:#f0f0f0"/><path d="M 50.68 251.410004 H 66.31 V 259.000004 H 50.68 V 251.410004 Z" style="fill:#e6e6e6"/><path d="M 51.720001 251.410004 H 66.310001 V 259.000004 H 51.720001 V 251.410004 Z" style="fill:#f5f5f5"/><path d="M 68.760002 251.410004 H 84.390002 V 259.000004 H 68.760002 V 251.410004 Z" style="fill:#e6e6e6"/><path d="M 69.800003 251.410004 H 84.380003 V 259.000004 H 69.800003 V 251.410004 Z" style="fill:#f5f5f5"/><path d="M 50.68 265.690002 H 66.31 V 273.280003 H 50.68 V 265.690002 Z" style="fill:#e6e6e6"/><path d="M 51.720001 265.690002 H 66.310001 V 273.280003 H 51.720001 V 265.690002 Z" style="fill:#f5f5f5"/><path d="M 68.760002 265.690002 H 84.390002 V 273.280003 H 68.760002 V 265.690002 Z" style="fill:#e6e6e6"/><path d="M 69.800003 265.690002 H 84.380003 V 273.280003 H 69.800003 V 265.690002 Z" style="fill:#f5f5f5"/><path d="M 50.68 283.940002 H 66.31 V 291.530003 H 50.68 V 283.940002 Z" style="fill:#e6e6e6"/><path d="M 51.720001 283.940002 H 66.310001 V 291.530003 H 51.720001 V 283.940002 Z" style="fill:#f5f5f5"/><path d="M 68.760002 283.940002 H 84.390002 V 291.530003 H 68.760002 V 283.940002 Z" style="fill:#e6e6e6"/><path d="M 69.800003 283.940002 H 84.380003 V 291.530003 H 69.800003 V 283.940002 Z" style="fill:#f5f5f5"/><path d="M 50.68 294.420013 H 66.31 V 302.010014 H 50.68 V 294.420013 Z" style="fill:#e6e6e6"/><path d="M 51.720001 294.420013 H 66.310001 V 302.010014 H 51.720001 V 294.420013 Z" style="fill:#f5f5f5"/><path d="M 68.760002 294.420013 H 84.390002 V 302.010014 H 68.760002 V 294.420013 Z" style="fill:#e6e6e6"/><path d="M 69.800003 294.420013 H 84.380003 V 302.010014 H 69.800003 V 294.420013 Z" style="fill:#f5f5f5"/><path d="M 50.68 311.649994 H 66.31 V 319.239994 H 50.68 V 311.649994 Z" style="fill:#e6e6e6"/><path d="M 51.720001 311.649994 H 66.310001 V 319.239994 H 51.720001 V 311.649994 Z" style="fill:#f5f5f5"/><path d="M 68.760002 311.649994 H 84.390002 V 319.239994 H 68.760002 V 311.649994 Z" style="fill:#e6e6e6"/><path d="M 69.800003 311.649994 H 84.380003 V 319.239994 H 69.800003 V 311.649994 Z" style="fill:#f5f5f5"/><path d="M 50.68 322.130005 H 66.31 V 329.720005 H 50.68 V 322.130005 Z" style="fill:#e6e6e6"/><path d="M 51.720001 322.130005 H 66.310001 V 329.720005 H 51.720001 V 322.130005 Z" style="fill:#f5f5f5"/><path d="M 68.760002 322.130005 H 84.390002 V 329.720005 H 68.760002 V 322.130005 Z" style="fill:#e6e6e6"/><path d="M 69.800003 322.130005 H 84.380003 V 329.720005 H 69.800003 V 322.130005 Z" style="fill:#f5f5f5"/><path d="M 50.68 340.880005 H 66.31 V 348.470005 H 50.68 V 340.880005 Z" style="fill:#e6e6e6"/><path d="M 51.720001 340.880005 H 66.310001 V 348.470005 H 51.720001 V 340.880005 Z" style="fill:#f5f5f5"/><path d="M 68.760002 340.880005 H 84.390002 V 348.470005 H 68.760002 V 340.880005 Z" style="fill:#e6e6e6"/><path d="M 69.800003 340.880005 H 84.380003 V 348.470005 H 69.800003 V 340.880005 Z" style="fill:#f5f5f5"/><path d="M 50.68 354.720001 H 66.31 V 362.310001 H 50.68 V 354.720001 Z" style="fill:#e6e6e6"/><path d="M 51.720001 354.720001 H 66.310001 V 362.310001 H 51.720001 V 354.720001 Z" style="fill:#f5f5f5"/><path d="M 68.760002 354.720001 H 84.390002 V 362.310001 H 68.760002 V 354.720001 Z" style="fill:#e6e6e6"/><path d="M 69.800003 354.720001 H 84.380003 V 362.310001 H 69.800003 V 354.720001 Z" style="fill:#f5f5f5"/><path d="M 46.360001 277.950012 H 105.07 V 279.260012 H 46.360001 V 277.950012 Z" style="opacity:0.05"/><path d="M 46.360001 306.170013 H 105.07 V 307.480013 H 46.360001 V 306.170013 Z" style="opacity:0.05"/><path d="M 46.360001 334.640015 H 105.07 V 335.940015 H 46.360001 V 334.640015 Z" style="opacity:0.05"/><path d="M 43.59 235.440002 H 105.060001 V 240.000002 H 43.59 V 235.440002 Z" style="fill:#e0e0e0"/><path d="M 91.019997 235.440002 H 105.069997 V 240.000002 H 91.019997 V 235.440002 Z" style="opacity:0.05"/><path d="M 239.360001 165.259995 H 308.300003 V 344.429993 H 239.360001 V 165.259995 Z" style="fill:#e6e6e6"/><path d="M 213.839996 165.259995 H 282.779999 V 344.429993 H 213.839996 V 165.259995 Z" style="fill:#f0f0f0"/><path d="M 219.860001 177.419998 H 276.77 V 186.549998 H 219.860001 V 177.419998 Z" style="fill:#e6e6e6"/><path d="M 222.059998 177.419998 H 276.759998 V 186.549998 H 222.059998 V 177.419998 Z" style="fill:#f5f5f5"/><path d="M 219.860001 192.789993 H 276.77 V 201.919993 H 219.860001 V 192.789993 Z" style="fill:#e6e6e6"/><path d="M 222.059998 192.789993 H 276.759998 V 201.919993 H 222.059998 V 192.789993 Z" style="fill:#f5f5f5"/><path d="M 219.860001 208.75 H 276.77 V 217.88 H 219.860001 V 208.75 Z" style="fill:#e6e6e6"/><path d="M 222.059998 208.75 H 276.759998 V 217.88 H 222.059998 V 208.75 Z" style="fill:#f5f5f5"/><path d="M 219.860001 224.720001 H 276.77 V 233.850001 H 219.860001 V 224.720001 Z" style="fill:#e6e6e6"/><path d="M 222.059998 224.720001 H 276.759998 V 233.850001 H 222.059998 V 224.720001 Z" style="fill:#f5f5f5"/><path d="M 219.860001 240.679993 H 276.77 V 249.809993 H 219.860001 V 240.679993 Z" style="fill:#e6e6e6"/><path d="M 222.059998 240.679993 H 276.759998 V 249.809993 H 222.059998 V 240.679993 Z" style="fill:#f5f5f5"/><path d="M 219.860001 256.649994 H 276.77 V 265.779994 H 219.860001 V 256.649994 Z" style="fill:#e6e6e6"/><path d="M 222.059998 256.649994 H 276.759998 V 265.779994 H 222.059998 V 256.649994 Z" style="fill:#f5f5f5"/><path d="M 219.860001 274.23999 H 276.77 V 283.36999 H 219.860001 V 274.23999 Z" style="fill:#e6e6e6"/><path d="M 222.059998 274.23999 H 276.759998 V 283.36999 H 222.059998 V 274.23999 Z" style="fill:#f5f5f5"/><path d="M 219.860001 291.839996 H 276.77 V 300.969996 H 219.860001 V 291.839996 Z" style="fill:#e6e6e6"/><path d="M 222.059998 291.839996 H 276.759998 V 300.969996 H 222.059998 V 291.839996 Z" style="fill:#f5f5f5"/><path d="M 219.860001 309.440002 H 276.77 V 318.570003 H 219.860001 V 309.440002 Z" style="fill:#e6e6e6"/><path d="M 222.059998 309.440002 H 276.759998 V 318.570003 H 222.059998 V 309.440002 Z" style="fill:#f5f5f5"/><path d="M 219.860001 327.029999 H 276.77 V 336.159999 H 219.860001 V 327.029999 Z" style="fill:#e6e6e6"/><path d="M 222.059998 327.029999 H 276.759998 V 336.159999 H 222.059998 V 327.029999 Z" style="fill:#f5f5f5"/><path d="M 211.889999 163.460007 H 310.089996 V 167.830007 H 211.889999 V 163.460007 Z" style="fill:#e0e0e0"/><path d="M 211.889999 155.570007 H 310.089996 V 159.940007 H 211.889999 V 155.570007 Z" style="fill:#e0e0e0"/><path d="M 213.839996 159.080002 H 306.829994 V 163.450002 H 213.839996 V 159.080002 Z" style="fill:#f0f0f0"/><path d="M 289.089996 177.419998 H 308.299995 V 186.549998 H 289.089996 V 177.419998 Z" style="fill:#e0e0e0"/><path d="M 289.089996 192.440002 H 308.299995 V 201.570003 H 289.089996 V 192.440002 Z" style="fill:#e0e0e0"/><path d="M 289.089996 207.470001 H 308.299995 V 216.600001 H 289.089996 V 207.470001 Z" style="fill:#e0e0e0"/><path d="M 289.089996 224.710007 H 308.299995 V 233.840007 H 289.089996 V 224.710007 Z" style="fill:#e0e0e0"/><path d="M 289.089996 240.679993 H 308.299995 V 249.809993 H 289.089996 V 240.679993 Z" style="fill:#e0e0e0"/><path d="M 289.089996 256.649994 H 308.299995 V 265.779994 H 289.089996 V 256.649994 Z" style="fill:#e0e0e0"/><path d="M 289.089996 274.23999 H 308.299995 V 283.36999 H 289.089996 V 274.23999 Z" style="fill:#e0e0e0"/><path d="M 289.089996 291.839996 H 308.299995 V 300.969996 H 289.089996 V 291.839996 Z" style="fill:#e0e0e0"/><path d="M 289.089996 309.429993 H 308.299995 V 318.559993 H 289.089996 V 309.429993 Z" style="fill:#e0e0e0"/><path d="M 289.089996 327.029999 H 308.299995 V 336.159999 H 289.089996 V 327.029999 Z" style="fill:#e0e0e0"/><path d="M 458.809998 302.690002 H 464.339998 V 311.340002 H 458.809998 V 302.690002 Z" style="fill:#e0e0e0"/><path d="M 458.809998 316.850006 H 464.339998 V 325.500006 H 458.809998 V 316.850006 Z" style="fill:#e0e0e0"/><path d="M 458.809998 330.600006 H 464.339998 V 339.250006 H 458.809998 V 330.600006 Z" style="fill:#e0e0e0"/><path d="M 458.809998 345.149994 H 464.339998 V 353.799994 H 458.809998 V 345.149994 Z" style="fill:#e0e0e0"/><path d="M 458.809998 359.299988 H 464.339998 V 367.949987 H 458.809998 V 359.299988 Z" style="fill:#e0e0e0"/><path d="M 406.170013 294 H 464.340012 V 382.470001 H 406.170013 V 294 Z" style="fill:#e6e6e6"/><path d="M 406.179993 294 H 454.519993 V 382.470001 H 406.179993 V 294 Z" style="fill:#f0f0f0"/><path d="M 410.529999 302.690002 H 449.84 V 311.340002 H 410.529999 V 302.690002 Z" style="fill:#ebebeb"/><path d="M 410.529999 316.850006 H 449.84 V 325.500006 H 410.529999 V 316.850006 Z" style="fill:#ebebeb"/><path d="M 410.529999 331 H 449.84 V 339.65 H 410.529999 V 331 Z" style="fill:#ebebeb"/><path d="M 410.529999 345.149994 H 449.84 V 353.799994 H 410.529999 V 345.149994 Z" style="fill:#ebebeb"/><path d="M 410.529999 359.299988 H 449.84 V 367.949987 H 410.529999 V 359.299988 Z" style="fill:#ebebeb"/><path d="M 411.970001 302.690002 H 449.830002 V 311.340002 H 411.970001 V 302.690002 Z" style="fill:#f5f5f5"/><path d="M 411.970001 316.850006 H 449.830002 V 325.500006 H 411.970001 V 316.850006 Z" style="fill:#f5f5f5"/><path d="M 411.970001 331 H 449.830002 V 339.65 H 411.970001 V 331 Z" style="fill:#f5f5f5"/><path d="M 411.970001 345.149994 H 449.830002 V 353.799994 H 411.970001 V 345.149994 Z" style="fill:#f5f5f5"/><path d="M 411.970001 359.299988 H 449.830002 V 367.949987 H 411.970001 V 359.299988 Z" style="fill:#f5f5f5"/></g><g id="freepik--buildings-1--inject-12"><path d="M 119.269997 219.520004 H 218.299995 V 412.779999 H 119.269997 V 219.520004 Z" style="fill:#40A4FF"/><path d="M 119.269997 219.520004 H 200.299995 V 412.779999 H 119.269997 V 219.520004 Z" style="fill:#fff;opacity:0.4"/><path d="M 117.139999 219.520004 H 219.470001 V 222.670004 H 117.139999 V 219.520004 Z" style="fill:#40A4FF"/><path d="M 117.139999 213.210007 H 219.470001 V 216.370007 H 117.139999 V 213.210007 Z" style="fill:#40A4FF"/><path d="M 119.269997 216.369995 H 217.32 V 219.519995 H 119.269997 V 216.369995 Z" style="fill:#f0f0f0"/><path d="M 126.959999 230.899994 H 142.179999 V 246.119994 H 126.959999 V 230.899994 Z" style="fill:#40A4FF"/><path d="M 128.300003 230.899994 H 142.180003 V 246.119994 H 128.300003 V 230.899994 Z" style="fill:#fff;opacity:0.2"/><path d="M 150.009995 230.899994 H 165.229995 V 246.119994 H 150.009995 V 230.899994 Z" style="fill:#40A4FF"/><path d="M 151.350006 230.899994 H 165.230006 V 246.119994 H 151.350006 V 230.899994 Z" style="fill:#fff;opacity:0.2"/><path d="M 173.050003 230.899994 H 188.270003 V 246.119994 H 173.050003 V 230.899994 Z" style="fill:#40A4FF"/><path d="M 174.389999 230.899994 H 188.27 V 246.119994 H 174.389999 V 230.899994 Z" style="fill:#fff;opacity:0.2"/><path d="M 126.959999 253.309998 H 142.179999 V 268.529998 H 126.959999 V 253.309998 Z" style="fill:#40A4FF"/><path d="M 128.300003 253.309998 H 142.180003 V 268.529998 H 128.300003 V 253.309998 Z" style="fill:#fff;opacity:0.2"/><path d="M 150.009995 253.309998 H 165.229995 V 268.529998 H 150.009995 V 253.309998 Z" style="fill:#40A4FF"/><path d="M 151.350006 253.309998 H 165.230006 V 268.529998 H 151.350006 V 253.309998 Z" style="fill:#fff;opacity:0.2"/><path d="M 173.050003 253.309998 H 188.270003 V 268.529998 H 173.050003 V 253.309998 Z" style="fill:#40A4FF"/><path d="M 174.389999 253.309998 H 188.27 V 268.529998 H 174.389999 V 253.309998 Z" style="fill:#fff;opacity:0.2"/><path d="M 126.959999 294.339996 H 142.179999 V 309.559997 H 126.959999 V 294.339996 Z" style="fill:#40A4FF"/><path d="M 128.300003 294.339996 H 142.180003 V 309.559997 H 128.300003 V 294.339996 Z" style="fill:#fff;opacity:0.2"/><path d="M 150.009995 294.339996 H 165.229995 V 309.559997 H 150.009995 V 294.339996 Z" style="fill:#40A4FF"/><path d="M 151.350006 294.339996 H 165.230006 V 309.559997 H 151.350006 V 294.339996 Z" style="fill:#fff;opacity:0.2"/><path d="M 173.050003 294.339996 H 188.270003 V 309.559997 H 173.050003 V 294.339996 Z" style="fill:#40A4FF"/><path d="M 174.389999 294.339996 H 188.27 V 309.559997 H 174.389999 V 294.339996 Z" style="fill:#fff;opacity:0.2"/><path d="M 126.959999 316.75 H 142.179999 V 331.97 H 126.959999 V 316.75 Z" style="fill:#40A4FF"/><path d="M 128.300003 316.75 H 142.180003 V 331.97 H 128.300003 V 316.75 Z" style="fill:#fff;opacity:0.2"/><path d="M 150.009995 316.75 H 165.229995 V 331.97 H 150.009995 V 316.75 Z" style="fill:#40A4FF"/><path d="M 151.350006 316.75 H 165.230006 V 331.97 H 151.350006 V 316.75 Z" style="fill:#fff;opacity:0.2"/><path d="M 173.050003 316.75 H 188.270003 V 331.97 H 173.050003 V 316.75 Z" style="fill:#40A4FF"/><path d="M 174.389999 316.75 H 188.27 V 331.97 H 174.389999 V 316.75 Z" style="fill:#fff;opacity:0.2"/><path d="M 126.959999 362.359985 H 142.179999 V 377.579986 H 126.959999 V 362.359985 Z" style="fill:#40A4FF"/><path d="M 128.300003 362.359985 H 142.180003 V 377.579986 H 128.300003 V 362.359985 Z" style="fill:#fff;opacity:0.2"/><path d="M 150.009995 362.359985 H 165.229995 V 377.579986 H 150.009995 V 362.359985 Z" style="fill:#40A4FF"/><path d="M 151.350006 362.359985 H 165.230006 V 377.579986 H 151.350006 V 362.359985 Z" style="fill:#fff;opacity:0.2"/><path d="M 173.050003 362.359985 H 188.270003 V 377.579986 H 173.050003 V 362.359985 Z" style="fill:#40A4FF"/><path d="M 174.389999 362.359985 H 188.27 V 377.579986 H 174.389999 V 362.359985 Z" style="fill:#fff;opacity:0.2"/><path d="M 126.959999 384.769989 H 142.179999 V 399.989989 H 126.959999 V 384.769989 Z" style="fill:#40A4FF"/><path d="M 128.300003 384.769989 H 142.180003 V 399.989989 H 128.300003 V 384.769989 Z" style="fill:#fff;opacity:0.2"/><path d="M 150.009995 384.769989 H 165.229995 V 399.989989 H 150.009995 V 384.769989 Z" style="fill:#40A4FF"/><path d="M 151.350006 384.769989 H 165.230006 V 399.989989 H 151.350006 V 384.769989 Z" style="fill:#fff;opacity:0.2"/><path d="M 173.050003 384.769989 H 188.270003 V 399.989989 H 173.050003 V 384.769989 Z" style="fill:#40A4FF"/><path d="M 174.389999 384.769989 H 188.27 V 399.989989 H 174.389999 V 384.769989 Z" style="fill:#fff;opacity:0.2"/><path d="M 119.269997 279.230011 H 218.299995 V 280.640011 H 119.269997 V 279.230011 Z" style="fill:#fff;opacity:0.2"/><path d="M 119.269997 349.369995 H 218.299995 V 350.779995 H 119.269997 V 349.369995 Z" style="fill:#fff;opacity:0.2"/><path d="M 286.160004 246.119995 H 354.650002 V 412.779999 H 286.160004 V 246.119995 Z" style="fill:#40A4FF"/><path d="M 286.160004 246.119995 H 338.260002 V 412.779999 H 286.160004 V 246.119995 Z" style="fill:#fff;opacity:0.4"/><path d="M 291.209991 259.809998 H 309.439991 V 268.659998 H 291.209991 V 259.809998 Z" style="fill:#40A4FF"/><path d="M 292.420013 259.809998 H 309.440014 V 268.659998 H 292.420013 V 259.809998 Z" style="fill:#fff;opacity:0.2"/><path d="M 312.299988 259.809998 H 330.529987 V 268.659998 H 312.299988 V 259.809998 Z" style="fill:#40A4FF"/><path d="M 313.51001 259.809998 H 330.53001 V 268.659998 H 313.51001 V 259.809998 Z" style="fill:#fff;opacity:0.2"/><path d="M 291.209991 276.470001 H 309.439991 V 285.320002 H 291.209991 V 276.470001 Z" style="fill:#40A4FF"/><path d="M 292.420013 276.470001 H 309.440014 V 285.320002 H 292.420013 V 276.470001 Z" style="fill:#fff;opacity:0.2"/><path d="M 312.299988 276.470001 H 330.529987 V 285.320002 H 312.299988 V 276.470001 Z" style="fill:#40A4FF"/><path d="M 313.51001 276.470001 H 330.53001 V 285.320002 H 313.51001 V 276.470001 Z" style="fill:#fff;opacity:0.2"/><path d="M 291.209991 297.76001 H 309.439991 V 306.61001 H 291.209991 V 297.76001 Z" style="fill:#40A4FF"/><path d="M 292.420013 297.76001 H 309.440014 V 306.61001 H 292.420013 V 297.76001 Z" style="fill:#fff;opacity:0.2"/><path d="M 312.299988 297.76001 H 330.529987 V 306.61001 H 312.299988 V 297.76001 Z" style="fill:#40A4FF"/><path d="M 313.51001 297.76001 H 330.53001 V 306.61001 H 313.51001 V 297.76001 Z" style="fill:#fff;opacity:0.2"/><path d="M 291.209991 309.98999 H 309.439991 V 318.839991 H 291.209991 V 309.98999 Z" style="fill:#40A4FF"/><path d="M 292.420013 309.98999 H 309.440014 V 318.839991 H 292.420013 V 309.98999 Z" style="fill:#fff;opacity:0.2"/><path d="M 312.299988 309.98999 H 330.529987 V 318.839991 H 312.299988 V 309.98999 Z" style="fill:#40A4FF"/><path d="M 313.51001 309.98999 H 330.53001 V 318.839991 H 313.51001 V 309.98999 Z" style="fill:#fff;opacity:0.2"/><path d="M 291.209991 330.089996 H 309.439991 V 338.939997 H 291.209991 V 330.089996 Z" style="fill:#40A4FF"/><path d="M 292.420013 330.089996 H 309.440014 V 338.939997 H 292.420013 V 330.089996 Z" style="fill:#fff;opacity:0.2"/><path d="M 312.299988 330.089996 H 330.529987 V 338.939997 H 312.299988 V 330.089996 Z" style="fill:#40A4FF"/><path d="M 313.51001 330.089996 H 330.53001 V 338.939997 H 313.51001 V 330.089996 Z" style="fill:#fff;opacity:0.2"/><path d="M 291.209991 342.320007 H 309.439991 V 351.170008 H 291.209991 V 342.320007 Z" style="fill:#40A4FF"/><path d="M 292.420013 342.320007 H 309.440014 V 351.170008 H 292.420013 V 342.320007 Z" style="fill:#fff;opacity:0.2"/><path d="M 312.299988 342.320007 H 330.529987 V 351.170008 H 312.299988 V 342.320007 Z" style="fill:#40A4FF"/><path d="M 313.51001 342.320007 H 330.53001 V 351.170008 H 313.51001 V 342.320007 Z" style="fill:#fff;opacity:0.2"/><path d="M 291.209991 364.190002 H 309.439991 V 373.040003 H 291.209991 V 364.190002 Z" style="fill:#40A4FF"/><path d="M 292.420013 364.190002 H 309.440014 V 373.040003 H 292.420013 V 364.190002 Z" style="fill:#fff;opacity:0.2"/><path d="M 312.299988 364.190002 H 330.529987 V 373.040003 H 312.299988 V 364.190002 Z" style="fill:#40A4FF"/><path d="M 313.51001 364.190002 H 330.53001 V 373.040003 H 313.51001 V 364.190002 Z" style="fill:#fff;opacity:0.2"/><path d="M 291.209991 380.350006 H 309.439991 V 389.200006 H 291.209991 V 380.350006 Z" style="fill:#40A4FF"/><path d="M 292.420013 380.350006 H 309.440014 V 389.200006 H 292.420013 V 380.350006 Z" style="fill:#fff;opacity:0.2"/><path d="M 312.299988 380.350006 H 330.529987 V 389.200006 H 312.299988 V 380.350006 Z" style="fill:#40A4FF"/><path d="M 313.51001 380.350006 H 330.53001 V 389.200006 H 313.51001 V 380.350006 Z" style="fill:#fff;opacity:0.2"/><path d="M 282.940002 241.190002 H 354.660004 V 246.510003 H 282.940002 V 241.190002 Z" style="fill:#40A4FF"/><path d="M 338.269989 241.190002 H 354.659988 V 246.510003 H 338.269989 V 241.190002 Z" style="opacity:0.2"/><path d="M 279.709991 319.709991 H 286.159991 V 329.799992 H 279.709991 V 319.709991 Z" style="fill:#e0e0e0"/><path d="M 279.709991 336.220001 H 286.159991 V 346.310001 H 279.709991 V 336.220001 Z" style="fill:#e0e0e0"/><path d="M 279.709991 352.269989 H 286.159991 V 362.359989 H 279.709991 V 352.269989 Z" style="fill:#e0e0e0"/><path d="M 279.709991 369.23999 H 286.159991 V 379.32999 H 279.709991 V 369.23999 Z" style="fill:#e0e0e0"/><path d="M 279.709991 385.75 H 286.159991 V 395.84 H 279.709991 V 385.75 Z" style="fill:#e0e0e0"/><path d="M 218.300003 309.570007 H 286.160004 V 412.780006 H 218.300003 V 309.570007 Z" style="fill:#40A4FF"/><path d="M 218.300003 309.559998 H 274.700005 V 412.779999 H 218.300003 V 309.559998 Z" style="fill:#fff;opacity:0.30000000000000004"/><path d="M 223.369995 319.709991 H 269.229996 V 329.799992 H 223.369995 V 319.709991 Z" style="fill:#40A4FF"/><path d="M 223.369995 336.220001 H 269.229996 V 346.310001 H 223.369995 V 336.220001 Z" style="fill:#40A4FF"/><path d="M 223.369995 352.730011 H 269.229996 V 362.820011 H 223.369995 V 352.730011 Z" style="fill:#40A4FF"/><path d="M 223.369995 369.23999 H 269.229996 V 379.32999 H 223.369995 V 369.23999 Z" style="fill:#40A4FF"/><path d="M 223.369995 385.75 H 269.229996 V 395.84 H 223.369995 V 385.75 Z" style="fill:#40A4FF"/><g style="opacity:0.1"><path d="M 225.059998 319.709991 H 269.229996 V 329.799992 H 225.059998 V 319.709991 Z" style="fill:#fff"/><path d="M 225.059998 336.220001 H 269.229996 V 346.310001 H 225.059998 V 336.220001 Z" style="fill:#fff"/><path d="M 225.059998 352.730011 H 269.229996 V 362.820011 H 225.059998 V 352.730011 Z" style="fill:#fff"/><path d="M 225.059998 369.23999 H 269.229996 V 379.32999 H 225.059998 V 369.23999 Z" style="fill:#fff"/><path d="M 225.059998 385.75 H 269.229996 V 395.84 H 225.059998 V 385.75 Z" style="fill:#fff"/></g><path d="M 78.58000183105469 341.2699890136719 L 33.04999923706055 341.2699890136719 L 33.04999923706055 412.7799987792969 L 105.70999908447266 412.7799987792969 L 105.70999908447266 341.2699890136719 L 105.70999908447266 309.55999755859375 L 78.58000183105469 341.2699890136719 Z" style="fill:#40A4FF"/><path d="M 105.709999 309.559998 H 119.27 V 412.779999 H 105.709999 V 309.559998 Z" style="fill:#40A4FF"/><path d="M 105.709999 309.559998 H 119.27 V 412.779999 H 105.709999 V 309.559998 Z" style="fill:#fff;opacity:0.7000000000000001"/><path d="M 200.289993 222.669998 H 218.299994 V 412.779999 H 200.289993 V 222.669998 Z" style="fill:#fff;opacity:0.7000000000000001"/><path d="M 274.700012 309.559998 H 286.160012 V 412.779999 H 274.700012 V 309.559998 Z" style="fill:#fff;opacity:0.6000000000000001"/><path d="M 338.269989 246.509995 H 354.659988 V 412.779999 H 338.269989 V 246.509995 Z" style="fill:#fff;opacity:0.7000000000000001"/><path d="M 361.670013 217.940002 H 364.250013 V 228.590002 H 361.670013 V 217.940002 Z" style="fill:#fff;opacity:0.5"/><path d="M 361.670013 235.860001 H 364.250013 V 246.51 H 361.670013 V 235.860001 Z" style="fill:#fff;opacity:0.5"/><path d="M 361.670013 254.490005 H 364.250013 V 265.140005 H 361.670013 V 254.490005 Z" style="fill:#fff;opacity:0.5"/><path d="M 361.670013 273.119995 H 364.250013 V 283.769995 H 361.670013 V 273.119995 Z" style="fill:#fff;opacity:0.5"/><path d="M 361.670013 291.73999 H 364.250013 V 302.38999 H 361.670013 V 291.73999 Z" style="fill:#fff;opacity:0.5"/><path d="M 361.670013 310.369995 H 364.250013 V 321.019995 H 361.670013 V 310.369995 Z" style="fill:#fff;opacity:0.5"/><path d="M 361.670013 330.899994 H 364.250013 V 341.549994 H 361.670013 V 330.899994 Z" style="fill:#fff;opacity:0.5"/><path d="M 361.670013 351.429993 H 364.250013 V 362.079992 H 361.670013 V 351.429993 Z" style="fill:#fff;opacity:0.5"/><path d="M 361.670013 371.950012 H 364.250013 V 382.600012 H 361.670013 V 371.950012 Z" style="fill:#fff;opacity:0.5"/><path d="M 361.670013 392.480011 H 364.250013 V 403.130011 H 361.670013 V 392.480011 Z" style="fill:#fff;opacity:0.5"/><path d="M 384.429993 203.75 H 464.859993 V 412.779999 H 384.429993 V 203.75 Z" style="fill:#40A4FF"/><path d="M 354.649994 203.75 H 435.079994 V 412.779999 H 354.649994 V 203.75 Z" style="fill:#40A4FF"/><path d="M 435.089996 206.75 H 464.859997 V 412.779999 H 435.089996 V 206.75 Z" style="fill:#fff;opacity:0.7000000000000001"/><path d="M 442.450012 217.940002 H 464.860012 V 228.590002 H 442.450012 V 217.940002 Z" style="fill:#40A4FF"/><path d="M 442.450012 235.460007 H 464.860012 V 246.110006 H 442.450012 V 235.460007 Z" style="fill:#40A4FF"/><path d="M 442.450012 252.990005 H 464.860012 V 263.640005 H 442.450012 V 252.990005 Z" style="fill:#40A4FF"/><path d="M 442.450012 273.109985 H 464.860012 V 283.759985 H 442.450012 V 273.109985 Z" style="fill:#40A4FF"/><path d="M 442.450012 291.73999 H 464.860012 V 302.38999 H 442.450012 V 291.73999 Z" style="fill:#40A4FF"/><path d="M 442.450012 310.369995 H 464.860012 V 321.019995 H 442.450012 V 310.369995 Z" style="fill:#40A4FF"/><path d="M 442.450012 330.890015 H 464.860012 V 341.540014 H 442.450012 V 330.890015 Z" style="fill:#40A4FF"/><path d="M 442.450012 351.420013 H 464.860012 V 362.070013 H 442.450012 V 351.420013 Z" style="fill:#40A4FF"/><path d="M 442.450012 371.950012 H 464.860012 V 382.600012 H 442.450012 V 371.950012 Z" style="fill:#40A4FF"/><path d="M 442.450012 392.480011 H 464.860012 V 403.130011 H 442.450012 V 392.480011 Z" style="fill:#40A4FF"/><path d="M 442.450012 217.940002 H 464.860012 V 228.590002 H 442.450012 V 217.940002 Z" style="fill:#fff;opacity:0.30000000000000004"/><path d="M 442.450012 235.460007 H 464.860012 V 246.110006 H 442.450012 V 235.460007 Z" style="fill:#fff;opacity:0.30000000000000004"/><path d="M 442.450012 252.990005 H 464.860012 V 263.640005 H 442.450012 V 252.990005 Z" style="fill:#fff;opacity:0.30000000000000004"/><path d="M 442.450012 273.109985 H 464.860012 V 283.759985 H 442.450012 V 273.109985 Z" style="fill:#fff;opacity:0.30000000000000004"/><path d="M 442.450012 291.73999 H 464.860012 V 302.38999 H 442.450012 V 291.73999 Z" style="fill:#fff;opacity:0.30000000000000004"/><path d="M 442.450012 310.369995 H 464.860012 V 321.019995 H 442.450012 V 310.369995 Z" style="fill:#fff;opacity:0.30000000000000004"/><path d="M 442.450012 330.890015 H 464.860012 V 341.540014 H 442.450012 V 330.890015 Z" style="fill:#fff;opacity:0.30000000000000004"/><path d="M 442.450012 351.420013 H 464.860012 V 362.070013 H 442.450012 V 351.420013 Z" style="fill:#fff;opacity:0.30000000000000004"/><path d="M 442.450012 371.950012 H 464.860012 V 382.600012 H 442.450012 V 371.950012 Z" style="fill:#fff;opacity:0.30000000000000004"/><path d="M 442.450012 392.480011 H 464.860012 V 403.130011 H 442.450012 V 392.480011 Z" style="fill:#fff;opacity:0.30000000000000004"/><path d="M 354.649994 203.75 H 435.079994 V 412.779999 H 354.649994 V 203.75 Z" style="fill:#fff;opacity:0.4"/><path d="M 361.670013 217.940002 H 428.070015 V 228.590002 H 361.670013 V 217.940002 Z" style="fill:#40A4FF"/><path d="M 364.25 217.940002 H 428.07 V 228.590002 H 364.25 V 217.940002 Z" style="fill:#fff;opacity:0.2"/><path d="M 361.670013 235.860001 H 428.070015 V 246.51 H 361.670013 V 235.860001 Z" style="fill:#40A4FF"/><path d="M 364.25 235.860001 H 428.07 V 246.51 H 364.25 V 235.860001 Z" style="fill:#fff;opacity:0.2"/><path d="M 361.670013 254.490005 H 428.070015 V 265.140005 H 361.670013 V 254.490005 Z" style="fill:#40A4FF"/><path d="M 364.25 254.490005 H 428.07 V 265.140005 H 364.25 V 254.490005 Z" style="fill:#fff;opacity:0.2"/><path d="M 361.670013 273.119995 H 428.070015 V 283.769995 H 361.670013 V 273.119995 Z" style="fill:#40A4FF"/><path d="M 364.25 273.119995 H 428.07 V 283.769995 H 364.25 V 273.119995 Z" style="fill:#fff;opacity:0.2"/><path d="M 361.670013 291.73999 H 428.070015 V 302.38999 H 361.670013 V 291.73999 Z" style="fill:#40A4FF"/><path d="M 364.25 291.73999 H 428.07 V 302.38999 H 364.25 V 291.73999 Z" style="fill:#fff;opacity:0.2"/><path d="M 361.670013 310.369995 H 428.070015 V 321.019995 H 361.670013 V 310.369995 Z" style="fill:#40A4FF"/><path d="M 364.25 310.369995 H 428.07 V 321.019995 H 364.25 V 310.369995 Z" style="fill:#fff;opacity:0.2"/><path d="M 361.670013 330.899994 H 428.070015 V 341.549994 H 361.670013 V 330.899994 Z" style="fill:#40A4FF"/><path d="M 364.25 330.899994 H 428.07 V 341.549994 H 364.25 V 330.899994 Z" style="fill:#fff;opacity:0.2"/><path d="M 361.670013 351.429993 H 428.070015 V 362.079992 H 361.670013 V 351.429993 Z" style="fill:#40A4FF"/><path d="M 364.25 351.429993 H 428.07 V 362.079992 H 364.25 V 351.429993 Z" style="fill:#fff;opacity:0.2"/><path d="M 361.670013 371.950012 H 428.070015 V 382.600012 H 361.670013 V 371.950012 Z" style="fill:#40A4FF"/><path d="M 364.25 371.950012 H 428.07 V 382.600012 H 364.25 V 371.950012 Z" style="fill:#fff;opacity:0.2"/><path d="M 361.670013 392.480011 H 428.070015 V 403.130011 H 361.670013 V 392.480011 Z" style="fill:#40A4FF"/><path d="M 364.25 392.480011 H 428.07 V 403.130011 H 364.25 V 392.480011 Z" style="fill:#fff;opacity:0.2"/><path d="M 435.089996 197.539993 H 463.139996 V 201.639993 H 435.089996 V 197.539993 Z" style="fill:#40A4FF"/><path d="M 354.649994 196.539993 H 463.139992 V 201.639993 H 354.649994 V 196.539993 Z" style="fill:#f0f0f0"/><path d="M 352.380005 201.649994 H 466.950005 V 206.749994 H 352.380005 V 201.649994 Z" style="fill:#40A4FF"/><path d="M 352.380005 192.440002 H 466.950005 V 197.540002 H 352.380005 V 192.440002 Z" style="fill:#40A4FF"/><path d="M 352.380005 201.649994 H 466.950005 V 206.749994 H 352.380005 V 201.649994 Z" style="opacity:0.05"/><path d="M 352.380005 192.440002 H 466.950005 V 197.540002 H 352.380005 V 192.440002 Z" style="opacity:0.05"/><path d="M 286.160004 290.529999 H 354.650002 V 292.049999 H 286.160004 V 290.529999 Z" style="fill:#fff;opacity:0.2"/><path d="M 286.160004 323.459991 H 354.650002 V 324.979991 H 286.160004 V 323.459991 Z" style="fill:#fff;opacity:0.2"/><path d="M 286.160004 356.670013 H 354.650002 V 358.190013 H 286.160004 V 356.670013 Z" style="fill:#fff;opacity:0.2"/><path d="M 200.289993 219.520004 H 219.459993 V 222.670004 H 200.289993 V 219.520004 Z" style="opacity:0.2"/><path d="M 200.289993 213.210007 H 219.459993 V 216.360007 H 200.289993 V 213.210007 Z" style="opacity:0.2"/><path d="M 435.089996 201.649994 H 466.949997 V 206.749994 H 435.089996 V 201.649994 Z" style="opacity:0.2"/><path d="M 435.089996 192.440002 H 466.949997 V 197.540002 H 435.089996 V 192.440002 Z" style="opacity:0.2"/><path d="M 78.58000183105469 341.2699890136719 L 33.04999923706055 341.2699890136719 L 33.04999923706055 412.7799987792969 L 105.70999908447266 412.7799987792969 L 105.70999908447266 341.2699890136719 L 105.70999908447266 309.55999755859375 L 78.58000183105469 341.2699890136719 Z" style="fill:#fff;opacity:0.4"/><path d="M 39.639999 355.769989 H 50.45 V 366.579989 H 39.639999 V 355.769989 Z" style="fill:#40A4FF"/><path d="M 61.639999 355.769989 H 72.45 V 366.579989 H 61.639999 V 355.769989 Z" style="fill:#40A4FF"/><path d="M 83.639999 355.769989 H 94.45 V 366.579989 H 83.639999 V 355.769989 Z" style="fill:#40A4FF"/><path d="M 39.639999 373.959991 H 50.45 V 384.769992 H 39.639999 V 373.959991 Z" style="fill:#40A4FF"/><path d="M 61.639999 373.959991 H 72.45 V 384.769992 H 61.639999 V 373.959991 Z" style="fill:#40A4FF"/><path d="M 83.639999 373.959991 H 94.45 V 384.769992 H 83.639999 V 373.959991 Z" style="fill:#40A4FF"/><path d="M 39.639999 392.149994 H 50.45 V 402.959994 H 39.639999 V 392.149994 Z" style="fill:#40A4FF"/><path d="M 61.639999 392.149994 H 72.45 V 402.959994 H 61.639999 V 392.149994 Z" style="fill:#40A4FF"/><path d="M 83.639999 392.149994 H 94.45 V 402.959994 H 83.639999 V 392.149994 Z" style="fill:#40A4FF"/><path d="M 40.84 355.769989 H 51.650001 V 366.579989 H 40.84 V 355.769989 Z" style="fill:#fff;opacity:0.2"/><path d="M 62.830002 355.769989 H 73.640002 V 366.579989 H 62.830002 V 355.769989 Z" style="fill:#fff;opacity:0.2"/><path d="M 84.830002 355.769989 H 95.640002 V 366.579989 H 84.830002 V 355.769989 Z" style="fill:#fff;opacity:0.2"/><path d="M 40.84 373.959991 H 51.650001 V 384.769992 H 40.84 V 373.959991 Z" style="fill:#fff;opacity:0.2"/><path d="M 62.830002 373.959991 H 73.640002 V 384.769992 H 62.830002 V 373.959991 Z" style="fill:#fff;opacity:0.2"/><path d="M 84.830002 373.959991 H 95.640002 V 384.769992 H 84.830002 V 373.959991 Z" style="fill:#fff;opacity:0.2"/><path d="M 40.84 392.149994 H 51.650001 V 402.959994 H 40.84 V 392.149994 Z" style="fill:#fff;opacity:0.2"/><path d="M 62.830002 392.149994 H 73.640002 V 402.959994 H 62.830002 V 392.149994 Z" style="fill:#fff;opacity:0.2"/><path d="M 84.830002 392.149994 H 95.640002 V 402.959994 H 84.830002 V 392.149994 Z" style="fill:#fff;opacity:0.2"/></g><g id="freepik--Street--inject-12"><path d="M 244.10000610351562 421.07000732421875 L 237.83999633789062 452.8299865722656 L 258.8500061035156 452.8299865722656 L 256.7200012207031 421.07000732421875 L 244.10000610351562 421.07000732421875 Z" style="fill:#40A4FF"/><path d="M 263.739990234375 421.07000732421875 L 272.739990234375 452.8299865722656 L 286.82000732421875 452.8299865722656 L 275.2799987792969 421.07000732421875 L 263.739990234375 421.07000732421875 Z" style="fill:#40A4FF"/><path d="M 283.20001220703125 421.07000732421875 L 301.7200012207031 452.8299865722656 L 317.70001220703125 452.8299865722656 L 293.6300048828125 421.07000732421875 L 283.20001220703125 421.07000732421875 Z" style="fill:#40A4FF"/><path d="M 301.989990234375 421.07000732421875 L 332.67999267578125 452.8299865722656 L 351.7900085449219 452.8299865722656 L 313.44000244140625 421.07000732421875 L 301.989990234375 421.07000732421875 Z" style="fill:#40A4FF"/><path d="M 236.25999450683594 421.07000732421875 L 227.25999450683594 452.8299865722656 L 213.17999267578125 452.8299865722656 L 224.72000122070312 421.07000732421875 L 236.25999450683594 421.07000732421875 Z" style="fill:#40A4FF"/><path d="M 216.8000030517578 421.07000732421875 L 198.27999877929688 452.8299865722656 L 182.3000030517578 452.8299865722656 L 206.3699951171875 421.07000732421875 L 216.8000030517578 421.07000732421875 Z" style="fill:#40A4FF"/><path d="M 198.00999450683594 421.07000732421875 L 167.32000732421875 452.8299865722656 L 148.2100067138672 452.8299865722656 L 186.55999755859375 421.07000732421875 L 198.00999450683594 421.07000732421875 Z" style="fill:#40A4FF"/><path d="M 244.10000610351562 421.07000732421875 L 237.83999633789062 452.8299865722656 L 258.8500061035156 452.8299865722656 L 256.7200012207031 421.07000732421875 L 244.10000610351562 421.07000732421875 Z" style="fill:#fff;opacity:0.4"/><path d="M 263.739990234375 421.07000732421875 L 272.739990234375 452.8299865722656 L 286.82000732421875 452.8299865722656 L 275.2799987792969 421.07000732421875 L 263.739990234375 421.07000732421875 Z" style="fill:#fff;opacity:0.4"/><path d="M 283.20001220703125 421.07000732421875 L 301.7200012207031 452.8299865722656 L 317.70001220703125 452.8299865722656 L 293.6300048828125 421.07000732421875 L 283.20001220703125 421.07000732421875 Z" style="fill:#fff;opacity:0.4"/><path d="M 301.989990234375 421.07000732421875 L 332.67999267578125 452.8299865722656 L 351.7900085449219 452.8299865722656 L 313.44000244140625 421.07000732421875 L 301.989990234375 421.07000732421875 Z" style="fill:#fff;opacity:0.4"/><path d="M 236.25999450683594 421.07000732421875 L 227.25999450683594 452.8299865722656 L 213.17999267578125 452.8299865722656 L 224.72000122070312 421.07000732421875 L 236.25999450683594 421.07000732421875 Z" style="fill:#fff;opacity:0.4"/><path d="M 216.8000030517578 421.07000732421875 L 198.27999877929688 452.8299865722656 L 182.3000030517578 452.8299865722656 L 206.3699951171875 421.07000732421875 L 216.8000030517578 421.07000732421875 Z" style="fill:#fff;opacity:0.4"/><path d="M 198.00999450683594 421.07000732421875 L 167.32000732421875 452.8299865722656 L 148.2100067138672 452.8299865722656 L 186.55999755859375 421.07000732421875 L 198.00999450683594 421.07000732421875 Z" style="fill:#fff;opacity:0.4"/><path d="M100.66,409.11A26.49,26.49,0,0,0,126,379.29c-.66-5.21-2.84-10.08-4.38-15.1-2.91-9.49-3.84-20.2-10.52-27.55a22,22,0,0,0-32.51,0c-4.33,4.75-6.38,11.17-7.27,17.54S70.55,367,70,373.37c-.5,5.31-1.51,10.61-1.29,15.94s1.82,10.88,5.73,14.51A27.52,27.52,0,0,0,81.06,408a24.23,24.23,0,0,0,7.4,2.66,8.82,8.82,0,0,0,7.35-2.05A16.78,16.78,0,0,0,100.66,409.11Z" style="fill:#40A4FF"/><path d="M100.66,409.11A26.49,26.49,0,0,0,126,379.29c-.66-5.21-2.84-10.08-4.38-15.1-2.91-9.49-3.84-20.2-10.52-27.55a22,22,0,0,0-32.51,0c-4.33,4.75-6.38,11.17-7.27,17.54S70.55,367,70,373.37c-.5,5.31-1.51,10.61-1.29,15.94s1.82,10.88,5.73,14.51A27.52,27.52,0,0,0,81.06,408a24.23,24.23,0,0,0,7.4,2.66,8.82,8.82,0,0,0,7.35-2.05A16.78,16.78,0,0,0,100.66,409.11Z" style="fill:#fff;opacity:0.7000000000000001"/><path d="M88.43,428.5v-1.33l2.21-1.87s2.64-27,3.09-34.82,1-20.14-1.88-29.08a83.21,83.21,0,0,1,5.41,19s3.42-12.3,9.49-20.13c0,0-7.4,18.9-6.4,36.48a198.35,198.35,0,0,0,3.75,29.73l1.32.88.11,1.11Z" style="fill:#40A4FF"/><path d="M95.18,385.12s-1.92-8.52-7.09-12.74c0,0,4.33,6,5.75,16.08s2.93,3.68,2.93,3.68Z" style="fill:#40A4FF"/><path d="M92.92,408.17a8.71,8.71,0,0,0-3.86-5s2,1.92,2.92,8.07S95.2,414,95.2,414l.18-3.39Z" style="fill:#40A4FF"/><path d="M92,411.23c-1-6.15-2.92-8.07-2.92-8.07a9,9,0,0,1,3.32,3.63c.6-6.55,1.16-13.08,1.35-16.31,0-.64.07-1.32.1-2-1.42-10.12-5.74-16.08-5.74-16.08,3,2.45,4.91,6.36,6,9.2.09-6.66-.3-14.18-2.22-20.18a83.21,83.21,0,0,1,5.41,19s3.42-12.3,9.49-20.13c0,0-7.4,18.9-6.4,36.48a198.35,198.35,0,0,0,3.75,29.73l1.32.88.11,1.11H88.43v-1.33l2.21-1.87S91.27,418.78,92,411.23Z" style="opacity:0.2"/><path d="M395.22,413.39a29.92,29.92,0,0,1-28.61-33.67c.75-5.88,3.21-11.38,4.95-17,3.29-10.72,4.34-22.81,11.88-31.1a24.81,24.81,0,0,1,36.69,0c4.89,5.35,7.21,12.61,8.22,19.79s.85,14.47,1.52,21.7c.56,6,1.7,12,1.46,18s-2.06,12.28-6.47,16.39a31.18,31.18,0,0,1-7.52,4.73,27.29,27.29,0,0,1-8.36,3,9.94,9.94,0,0,1-8.3-2.32A18.86,18.86,0,0,1,395.22,413.39Z" style="fill:#40A4FF"/><path d="M395.22,413.39a29.92,29.92,0,0,1-28.61-33.67c.75-5.88,3.21-11.38,4.95-17,3.29-10.72,4.34-22.81,11.88-31.1a24.81,24.81,0,0,1,36.69,0c4.89,5.35,7.21,12.61,8.22,19.79s.85,14.47,1.52,21.7c.56,6,1.7,12,1.46,18s-2.06,12.28-6.47,16.39a31.18,31.18,0,0,1-7.52,4.73,27.29,27.29,0,0,1-8.36,3,9.94,9.94,0,0,1-8.3-2.32A18.86,18.86,0,0,1,395.22,413.39Z" style="fill:#fff;opacity:0.7000000000000001"/><path d="M409,435.27v-1.49l-2.49-2.12s-3-30.51-3.49-39.3-1.12-22.74,2.12-32.83A93.62,93.62,0,0,0,399.05,381s-3.86-13.88-10.71-22.73c0,0,8.35,21.34,7.23,41.19A225.17,225.17,0,0,1,391.33,433l-1.49,1-.13,1.24Z" style="fill:#40A4FF"/><path d="M401.4,386.31s2.16-9.62,8-14.39c0,0-4.89,6.73-6.49,18.16s-3.32,4.14-3.32,4.14Z" style="fill:#40A4FF"/><path d="M404,412.33a9.84,9.84,0,0,1,4.36-5.66s-2.23,2.17-3.29,9.11-3.65,3.08-3.65,3.08l-.19-3.82Z" style="fill:#40A4FF"/><path d="M405,415.78c1.06-6.94,3.29-9.11,3.29-9.11a10.06,10.06,0,0,0-3.76,4.1c-.67-7.39-1.3-14.77-1.51-18.41,0-.73-.08-1.5-.12-2.29,1.6-11.42,6.49-18.15,6.49-18.15-3.4,2.77-5.55,7.18-6.76,10.39-.1-7.52.34-16,2.51-22.78A93.62,93.62,0,0,0,399.05,381s-3.86-13.88-10.71-22.73c0,0,8.35,21.34,7.23,41.19A225.17,225.17,0,0,1,391.33,433l-1.49,1-.13,1.24H409v-1.49l-2.49-2.12S405.81,424.31,405,415.78Z" style="opacity:0.2"/></g></g></svg>