<svg fill="#1192e5" id="Layer_1" data-name="Layer 1" xmlns="http://www.w3.org/2000/svg" viewBox="0 0 122.88 122.88"><defs><style>.cls-1{fill:#fff;}.cls-1,.cls-2{fill-rule:evenodd;}.cls-3{fill:#d92d27;}</style></defs><title>no-money</title><path class="cls-1" d="M61.44,12.1A49.34,49.34,0,1,1,12.1,61.44,49.34,49.34,0,0,1,61.44,12.1Z"/><path class="cls-2" d="M76.88,23.82,75.77,42l-5.7,5.71L70.93,35h0a5.27,5.27,0,0,1-5-5.51l-14.07-.65a5.26,5.26,0,0,1-5.49,5L43.61,74.15,37.79,80l3.52-57.81,35.57,1.66Zm8.18,25.66-3.12,51.24L46.38,99.06,46,94.44l26,1.09.33,0a4.45,4.45,0,0,0,4.62-4.3L77,89h.07l.3-10.79L79,55.51l6-6ZM80.35,37.41l.37-4.94,4.37.2-4.74,4.74ZM74.69,59.85l-2,32L44.06,90.48l5.95-6,12.35.57a5.27,5.27,0,0,1,5.49-5l1-14.37,5.85-5.85ZM60.9,51a8.13,8.13,0,0,1,3,2.95L52.8,65a8.1,8.1,0,0,1,8.1-14Z"/><path class="cls-3" d="M61.44,0A61.36,61.36,0,1,1,38,4.66,61.29,61.29,0,0,1,61.44,0Zm40.24,32.93L32.93,101.68A49.44,49.44,0,0,0,80.31,107,49.53,49.53,0,0,0,107,80.3a49,49,0,0,0,3.73-18.86h0a48.93,48.93,0,0,0-9.08-28.51ZM24,93.5,93.5,24A49.32,49.32,0,0,0,24,93.5Z"/></svg>