<?xml version="1.0" encoding="UTF-8"?>
<svg width="700pt" height="700pt" version="1.1" viewBox="0 0 700 700" xmlns="http://www.w3.org/2000/svg">
 <g>
  <path d="m350 555.61c-13.742 0-60.176-0.46484-80.734-6.1836-4.3633-1.2148-7.6055-4.8086-8.375-9.2383-0.74609-4.4336 1.0977-8.9375 4.7852-11.504 46.898-33.062 54.297-81.691 57.797-130.5-19.949 29.027-53.082 63.535-113.21 63.535-13.277 0-27.441-1.75-42.117-5.25-56-13.254-100.57-85.262-97.254-157.2 0.81641-17.875 4.3867-36.633 10.312-54.32 23.988-71.539 81.598-96.879 149.78-64.773-8.0273-14.863-15.492-30.309-19.109-47.109-11.059-51.008 12.762-93.426 63.699-113.52 23.66-9.3086 48.578-14.422 74.105-15.168 26.227 0.74609 51.125 5.8555 74.762 15.168 50.961 20.043 74.762 62.512 63.699 113.49-3.6172 16.824-11.082 32.27-19.109 47.109 68.156-32.059 125.79-6.7422 149.78 64.773 5.9492 17.688 9.4961 36.469 10.312 54.297 3.2891 71.961-41.277 143.96-97.254 157.22-14.676 3.4766-28.816 5.25-42.117 5.25-60.105 0-93.238-34.512-113.21-63.535 3.4766 48.789 10.898 97.441 57.797 130.5 3.6875 2.5664 5.5312 7.0703 4.7852 11.504-0.76953 4.4336-4.0352 8.0508-8.375 9.2383-20.559 5.7422-66.992 6.207-80.734 6.207zm-50.328-25.152c27.578 2.332 73.102 2.332 100.66 0-41.535-41.883-45.012-97.09-48.113-146.54-0.58203-9.543-1.1914-18.969-2.0547-28.188-0.44141-4.6445 1.9844-9.1484 6.1133-11.34 4.1055-2.2383 9.1914-1.7734 12.832 1.1914 4.7383 3.8281 8.7266 10.477 14.234 19.691 16.355 27.348 43.773 73.125 106.4 73.125 11.457 0 23.824-1.5391 36.727-4.5977 45.012-10.664 82.086-73.035 79.332-133.46-0.72266-15.703-3.8984-32.293-9.1484-47.949-9.6367-28.676-29.82-62.859-71.352-62.859-14.676 0-30.871 4.2461-48.137 12.625-8.168 3.9648-16.125 8.3086-23.031 12.086l-7.957 4.3398c-4.4336 2.3555-9.918 1.6094-13.578-1.8906-3.6172-3.4766-4.5977-8.9375-2.4258-13.465 3.7578-7.8164 8.0977-15.656 12.484-23.59 9.2617-16.684 18.852-33.926 22.656-51.449 8.6562-40.039-8.9141-70.887-49.488-86.895-21.094-8.3086-43.352-12.879-66.195-13.535-22.145 0.65234-44.402 5.2266-65.543 13.535-40.578 16.008-58.125 46.852-49.465 86.895 3.8438 17.48 13.414 34.723 22.676 51.406 4.3867 7.9336 8.7266 15.773 12.484 23.59 2.1914 4.5273 1.2148 9.9883-2.4258 13.465-3.6406 3.4727-9.125 4.1992-13.559 1.8867l-7.957-4.3398c-6.9062-3.7578-14.887-8.0977-23.055-12.062-17.242-8.3984-33.457-12.625-48.137-12.625-41.512 0-61.715 34.184-71.352 62.859-5.25 15.656-8.3984 32.246-9.1484 47.973-2.7539 60.41 34.324 122.78 79.332 133.44 12.902 3.0586 25.27 4.5977 36.727 4.5977 62.648 0 90.02-45.781 106.4-73.125 5.5078-9.2148 9.4961-15.867 14.234-19.691 3.6641-2.9648 8.7266-3.4062 12.832-1.1914 4.1289 2.2148 6.5352 6.6953 6.1133 11.34-0.86328 9.2148-1.4688 18.645-2.0547 28.188-3.0508 49.469-6.5273 104.68-48.059 146.56z"/>
  <path d="m360.36 365.14c-2.4492 0-4.9219-0.76953-7.0234-2.3555-2.7773-2.0781-5.5078-0.81641-6.9062 0.14063-5.2266 3.5469-12.438 2.4258-16.172-2.7539-3.6641-5.1562-2.707-12.203 2.3555-16.031 5.9961-4.5273 20.977-10.383 34.766 0 5.1562 3.875 6.1836 11.176 2.3086 16.332-2.3047 3.082-5.7812 4.668-9.3281 4.668z"/>
 </g>
</svg>
